# xmcd
# Track frame offsets:
# 150
# 22639
# 37124
# 50531
# 62653
# 79850
# 103607
# 118706
# 137133
# 149893
# 163137
# 172434
# 180641
#
# Disc length: 2695 seconds
# Revision: 0
# Processed by: cddbd v1.5.2PL0 Copyright (c) Steve Scherf et al.
# Submitted via: VisiTrax 2.10.3.257 - For more info visit www.synapsa.com
#
DISCID=c00a850d
DTITLE=Simon and Garfunkel - Bridge over troubled water [Bonus tracks]
DYEAR=1900
DGENRE=
TTITLE0=Bridge over troubled water
TTITLE1=El condor pasa (If I could)
TTITLE2=Cecilia
TTITLE3=Keep the customer satisfied
TTITLE4=So long, Frank Lloyd Wright
TTITLE5=The boxer
TTITLE6=Baby driver
TTITLE7=The only living boy in New York
TTITLE8=Why don't you write me
TTITLE9=Bye bye love
TTITLE10=Song for the asking
TTITLE11=Feuilles-O
TTITLE12=Bridge over troubled water (previously unreleased)
EXTD=
EXTT0=
EXTT1=
EXTT2=
EXTT3=
EXTT4=
EXTT5=
EXTT6=
EXTT7=
EXTT8=
EXTT9=
EXTT10=
EXTT11=
EXTT12=
PLAYORDER=
